<?xml version="1.0" ?>
<svg viewBox="0 0 128 128" xmlns="http://www.w3.org/2000/svg">
    <title/>
    <g data-name="Calender" id="f843e5c3-8972-4620-9d72-230521dc7d60">
        <path d="M16,44h96a0,0,0,0,1,0,0v69a5,5,0,0,1-5,5H21a5,5,0,0,1-5-5V44A0,0,0,0,1,16,44Z" fill="#c8cbd1"/>
        <path d="M95,113l-74,5a5,5,0,0,1-5-5V44h96v57C112,103.76,109,113,95,113Z" fill="#e7eaf1"/>
        <rect fill="#d5d7de" height="10" width="96" x="16" y="44"/>
        <path d="M18,25h92a6,6,0,0,1,6,6V49a0,0,0,0,1,0,0H12a0,0,0,0,1,0,0V31A6,6,0,0,1,18,25Z" fill="#fe5959"/>
        <path
            d="M30.93,43.49s0-.12,0-.23l0-.34c0-.12,0-.24,0-.34s0-.18,0-.22,0-.06,0-.12,0-.13,0-.21v-.58s0,0,0-.05,0,0,0-.06,0,0,0-.06a4.41,4.41,0,0,1,0-.45q0-.22.07-.45t.07-.45q0-.22,0-.45c0-.09,0-.19,0-.3a1.54,1.54,0,0,0,0-.3L31,35.17l.06-1.1.07-.06h.83l.29,0,.29,0,.16,0a5.63,5.63,0,0,1,.7,0h1a7,7,0,0,1,.79.09,7.42,7.42,0,0,1,.78.18,1.31,1.31,0,0,1,.39.17l.35.23q.33.24.62.5a4.88,4.88,0,0,1,.55.56,1.86,1.86,0,0,1,.24.37,3.77,3.77,0,0,1,.17.41q.07.21.13.43l.11.42v0l0,.07,0,.06v0l0,.06,0,.11,0,.11,0,.05a.49.49,0,0,1,0,.12s0,.1,0,.15a.52.52,0,0,0,0,.14.15.15,0,0,0,.08.09l0,.8a.08.08,0,0,1,.06,0,.28.28,0,0,1,0,.07,0,0,0,0,0,0,0v0l0,0,0,0,0,0v.14s0,.07,0,.11v.11h0a.11.11,0,0,0,0,.08.13.13,0,0,1,0,.09V40l0,0,0,0a.26.26,0,0,0,0,.1s0,.07,0,.11v0l-.17.43-.26.68v.06s0,.05,0,.07l0,0,0,0,0,0,0,0,0,0-.05.08-.06.09,0,.07a3.69,3.69,0,0,1-.29.41,1.9,1.9,0,0,1-.38.35,5.05,5.05,0,0,1-.44.28l-.44.27,0,0h-.06l0,0,0,0h-.06l-.07,0h0l-.06,0h-.6l-.22,0-.22,0-.13,0h-.07l-.06,0a9.59,9.59,0,0,0-1.09,0l-.92,0-.78,0a3.88,3.88,0,0,1-.69,0l0,0,0,0h0a.06.06,0,0,1-.05,0Zm2.42-2,.05,0,0,0h.12a1.23,1.23,0,0,0,.34,0l.34,0h.35a1.51,1.51,0,0,0,.35,0,1.61,1.61,0,0,0,.4-.12l.38-.17a2,2,0,0,0,.55-.37,2,2,0,0,0,.37-.48,2.36,2.36,0,0,0,.22-.58,3.49,3.49,0,0,0,.09-.65s0,0,0-.08,0-.08,0-.12,0-.08,0-.11,0-.06,0-.07l-.12-.52a3.84,3.84,0,0,0-.16-.51.13.13,0,0,0,0,0l0,0,0,0,0,0a.11.11,0,0,1,0-.06.11.11,0,0,0,0-.06l0-.05,0-.05-.07-.08-.12-.13L36.21,37l-.07-.08a1,1,0,0,0-.26-.2l-.29-.13-.39-.16a1.36,1.36,0,0,0-.4-.08l-1.72-.09s0,0,0,.08v.26s0,.07,0,.08v.2l0,.3s0,.05,0,.1,0,.08,0,.09,0,.07,0,.12,0,.08,0,.08v0l0,.06,0,.07v0l0,0,0,0V38l.1,1.16a.37.37,0,0,0,0,.13s0,.08,0,.14,0,.06,0,.13l0,.22,0,.22c0,.07,0,.11,0,.13a.12.12,0,0,1,0,.05v.05s0,0,0,.07v.25s0,.06,0,.07v0l0,.06,0,.07v.11s0,.08,0,.13v.13a.28.28,0,0,0,0,.08s0,0,0,.06a.91.91,0,0,0,0,.1l0,.1Z"
            fill="#fff"/>
        <path
            d="M40.54,43.4l-.06,0-.11,0-.12,0h-.17l0,0,0,0a.13.13,0,0,1-.09-.06l-.07-.07-.14,0a.15.15,0,0,1-.12-.09q0-.45,0-.88t0-.88q0-.31,0-.62c0-.21,0-.41,0-.62v-.34s0-.07,0-.1,0-.07,0-.1v-.06s0,0,0-.07l0-.11,0-.11,0-.07q-.06-1.28-.1-2.55T39.39,34V34a.4.4,0,0,1,0-.11.73.73,0,0,1,.05-.14l.07-.11s0,0,.07,0a.79.79,0,0,1,.23,0,.82.82,0,0,0,.23,0h.12l.07,0,.07,0a8.72,8.72,0,0,1,1.13-.09h1.13q.56,0,1.1.05l1.1.08.06.05,0,.06,0,.06.06.06S45,34,45,34l0,.24c0,.08,0,.16,0,.24s0,.13,0,.15v0s0,.05,0,.08,0,.06,0,.09V35s0,0,0,.06v.18s0,0,0,.06l-.09.15a.28.28,0,0,1-.11.1.72.72,0,0,1-.23.06l-.44,0H43l-.51,0-.6,0,0,.07a.72.72,0,0,0,0,.11l0,.23,0,.27,0,.22v.07a.48.48,0,0,1,0,.08v.11a.14.14,0,0,0,0,.1l0,0h0l.56.05H43.5a2,2,0,0,1,.45,0l.45.08h.24l.11,0a.19.19,0,0,1,.07.09l0,.1,0,.13,0,.11,0,.05a.8.8,0,0,0,0,.23l0,.23a1.86,1.86,0,0,1,0,.23.65.65,0,0,1,0,.23.37.37,0,0,1-.17.24,1.1,1.1,0,0,1-.47.13H41.87q0,.29,0,.59t0,.59s0,.07,0,.12,0,.08,0,.09v.11l0,.17,0,.18c0,.06,0,.09,0,.12V41l0,.08,0,.07v0l.2,0,2.78,0h.2l.12,0,.06,0,0,0s0,.09,0,.13v.2s0,.08,0,.14v.32s0,.07,0,.08v.39a.72.72,0,0,0,0,.18,1.32,1.32,0,0,1,0,.19.55.55,0,0,1,0,.18.32.32,0,0,1-.12.15l-1,.11a7.36,7.36,0,0,1-1,.07l-.48,0-.48,0a.32.32,0,0,0-.2,0l-.2.05-.18,0a.2.2,0,0,1-.16-.06Z"
            fill="#fff"/>
        <path
            d="M49,43.37q-.41-.16-.7-.29l-.49-.26a2.68,2.68,0,0,1-.33-.22l-.21-.18-.14-.14-.11-.11,0,0,0,0,0,0v0L46.89,42l-.08-.08-.07-.06,0,0-.13-.2h0a1.77,1.77,0,0,1-.22-.39,3.74,3.74,0,0,1-.15-.43c0-.15-.08-.3-.11-.45S46,40,46,39.87a.65.65,0,0,1,0-.18.81.81,0,0,0,0-.18l-.07-.26a1.31,1.31,0,0,1-.05-.26s0-.1,0-.19l0-.3q0-.16,0-.3v-.35a2.64,2.64,0,0,1,0-.42,4.09,4.09,0,0,1,.1-.41l0-.07,0-.13,0-.13,0-.07a2.15,2.15,0,0,1,.13-.35,2.07,2.07,0,0,1,.13-.24l.14-.18a1.19,1.19,0,0,1,.15-.29,2.78,2.78,0,0,1,.24-.3l.3-.3.32-.28a1.65,1.65,0,0,1,.47-.32l.52-.23.09,0,.16-.07.16-.07.09,0h0l.09,0,.09,0,.05,0,.07,0,.07,0h.33l.09,0h.07a1.62,1.62,0,0,1,.47-.07h1.52l.1,0H52l.07,0h.4l.07,0h.06l.06,0,.1.06.1.06.06,0,.07,0,.07,0,.05,0,.05,0h.06a.14.14,0,0,1,.08.1.51.51,0,0,1,0,.14v.06l0,0,0,.05,0,.07-.08.12-.08.11,0,.06a.41.41,0,0,0-.14.16l-.18.27a1.35,1.35,0,0,1-.21.24.24.24,0,0,1-.24.06l-.61-.13a3.8,3.8,0,0,0-.62-.06h-.31l-.08,0-.08,0h-.15l-.17,0-.17,0h-.16l-.1,0-.12,0-.09,0A2,2,0,0,0,49,36a2.89,2.89,0,0,0-.39.38l-.07.09-.11.15-.11.15-.07.09-.11.13a.46.46,0,0,0-.08.16l0,.11,0,.17,0,.17,0,.11v.06a.47.47,0,0,0,0,.12A.49.49,0,0,1,48,38h0l-.05.06,0,.06v0c0,.18,0,.38,0,.59a2.36,2.36,0,0,0,.11.58l.09.32h0l0,.08,0,.11,0,.11,0,.07a.21.21,0,0,1,.1.12.63.63,0,0,0,.07.15,4.3,4.3,0,0,0,.31.41,2.84,2.84,0,0,0,.36.35,2.38,2.38,0,0,0,.42.27,2.07,2.07,0,0,0,.49.17l.14,0,.2,0,.18,0h.45a3.37,3.37,0,0,0,.46,0,2.1,2.1,0,0,0,.45-.11l.05,0,.07,0,.07,0,0,0,.12-.06.1-.06.1,0,.12,0h.12a3,3,0,0,1,.26.26,1.29,1.29,0,0,1,.19.3l.05.1.08.17.08.17.05.09,0,0,.05.07,0,.07,0,0a.61.61,0,0,1,0,.2.12.12,0,0,1-.06.09l-.15.07a.82.82,0,0,0-.22.14h0a1.41,1.41,0,0,1-.3.18l-.32.11-.34.07-.35,0h-.18l-.31,0-.31,0-.18,0H49.35l-.12,0-.13,0Z"
            fill="#fff"/>
        <path
            d="M55.43,43.4l-.06,0-.11,0-.12,0H55l0,0,0,0a.13.13,0,0,1-.09-.06l-.07-.07-.14,0a.15.15,0,0,1-.12-.09q0-.45,0-.88t0-.88q0-.31,0-.62c0-.21,0-.41,0-.62v-.34s0-.07,0-.1,0-.07,0-.1v-.06s0,0,0-.07l0-.11,0-.11,0-.07q-.06-1.28-.1-2.55T54.28,34V34a.4.4,0,0,1,0-.11.73.73,0,0,1,.05-.14l.07-.11s0,0,.07,0a.79.79,0,0,1,.23,0,.82.82,0,0,0,.23,0h.12l.07,0,.07,0a8.72,8.72,0,0,1,1.13-.09h1.13q.56,0,1.1.05l1.1.08.06.05,0,.06,0,.06.06.06s0,.08,0,.16l0,.24c0,.08,0,.16,0,.24s0,.13,0,.15v0s0,.05,0,.08,0,.06,0,.09V35s0,0,0,.06v.18s0,0,0,.06l-.09.15a.28.28,0,0,1-.11.1.72.72,0,0,1-.23.06l-.44,0h-1.2l-.51,0-.6,0,0,.07a.72.72,0,0,0,0,.11l0,.23,0,.27,0,.22v.07a.48.48,0,0,1,0,.08v.11a.14.14,0,0,0,0,.1l0,0h0l.56.05h1.15a2,2,0,0,1,.45,0l.45.08h.24l.11,0a.19.19,0,0,1,.07.09l0,.1,0,.13,0,.11,0,.05a.8.8,0,0,0,0,.23l0,.23a1.86,1.86,0,0,1,0,.23.65.65,0,0,1,0,.23.37.37,0,0,1-.17.24,1.1,1.1,0,0,1-.47.13H56.76q0,.29,0,.59t0,.59s0,.07,0,.12,0,.08,0,.09v.11l0,.17,0,.18c0,.06,0,.09,0,.12V41l0,.08,0,.07v0l.2,0,2.78,0H60l.12,0,.06,0,0,0s0,.09,0,.13v.2s0,.08,0,.14v.32s0,.07,0,.08v.39a.72.72,0,0,0,0,.18,1.32,1.32,0,0,1,0,.19.55.55,0,0,1,0,.18.32.32,0,0,1-.12.15l-1,.11a7.36,7.36,0,0,1-1,.07l-.48,0-.48,0a.32.32,0,0,0-.2,0l-.2.05-.18,0a.2.2,0,0,1-.16-.06Z"
            fill="#fff"/>
        <path
            d="M61.08,43.43a4.6,4.6,0,0,1,0-.46c0-.15,0-.31.08-.47s.06-.25.08-.38,0-.26.05-.4l.1-.4a.59.59,0,0,1,0-.13c0-.06,0-.13,0-.2l0-.2c0-.06,0-.1,0-.13a.94.94,0,0,1,0-.12l0-.21,0-.25,0-.25,0-.21,0-.12s0,0,0-.07v-.23a.25.25,0,0,1,0-.07.8.8,0,0,1,0-.09v-.16s0-.06,0-.11a1.19,1.19,0,0,1,.05-.17l.06-.17c0-.05,0-.09,0-.11v-.14l.07-.26a.76.76,0,0,0,.06-.31.21.21,0,0,0,0-.1.2.2,0,0,1,0-.09v0l0,0,0,0A.82.82,0,0,0,62,37c0-.11,0-.22,0-.32l0,0,0,0a.23.23,0,0,0,0-.07s0-.08,0-.12V36.3l0-.06,0-.06v0s0,0,0,0a.24.24,0,0,1,0-.09.26.26,0,0,1,0-.09.09.09,0,0,1,.05-.05V35.8l0-.07,0-.24a1.42,1.42,0,0,0,0-.25.1.1,0,0,1,0-.06.47.47,0,0,1,0-.18.11.11,0,0,1,0-.06l.08-.77,0,0,0,0,0,0a.09.09,0,0,1,.07,0l.47-.13a2.42,2.42,0,0,1,.49-.06h1a.14.14,0,0,1,0,.07l0,.07.05.1.06.1,0,0a.51.51,0,0,1,0,.14c0,.07,0,.13,0,.2a.78.78,0,0,0,0,.18.09.09,0,0,0,.09.07,1.22,1.22,0,0,0,0,.24,1.62,1.62,0,0,0,0,.24l0,0v0l0,0,0,0v.26l0,0v0l0,0,0,0a.12.12,0,0,1,0,0v.17l0,0,0,0v0a.92.92,0,0,1,.06.22.3.3,0,0,0,.09.18l0,0,0,0a.21.21,0,0,1,0,.11.37.37,0,0,1,0,.12l0,.08,0,.13,0,.13,0,.08v0l0,0,0,0,0,0h0a.28.28,0,0,1,0,.09v.08l0,.06,0,.08q.18.32.35.64l.32.64a2,2,0,0,1,.16.35,1.87,1.87,0,0,0,.15.34l0,0L67,39c0-.05,0-.09,0-.11a.31.31,0,0,0,.07-.1l0-.13a1,1,0,0,0,0-.11l0-.11,0-.14,0-.07,0-.13,0-.13,0-.08,0-.13,0-.23,0-.23,0-.14,0-.07,0-.13,0-.13,0-.07v-.05a.07.07,0,0,1,0-.05.27.27,0,0,1,0-.15l0,0,.16-.5a.1.1,0,0,1,0-.06.13.13,0,0,1,0-.07l0,0,0,0a.81.81,0,0,0,.1-.25,1.55,1.55,0,0,1,.07-.25,4.51,4.51,0,0,1,.16-.43l.19-.43,0-.07,0-.1,0-.1,0-.07,0-.07v0l0,0,.06-.06H69l.42,0,.42,0h.64s.07,0,.12.1a1.27,1.27,0,0,1,.12.22,2.35,2.35,0,0,1,.09.27,1.16,1.16,0,0,1,0,.24h0L71,35v.14l0,.08,0,.07v0l0,0,.05,0v0a.14.14,0,0,1,0,.08.14.14,0,0,0,0,.08v0c0,.1,0,.19.06.27a2.2,2.2,0,0,1,0,.26s0,0,0,.08,0,.08,0,.08v.09l0,.11,0,.13.1.36s0,0,0,.06a.62.62,0,0,0,0,.08.32.32,0,0,0,0,.08.12.12,0,0,0,.06.05,1,1,0,0,0,0,.21q0,.11,0,.22l.05.22a1.79,1.79,0,0,1,0,.2s0,0,0,.07a.37.37,0,0,1,0,.07s0,.06,0,.15l0,.29,0,.29c0,.09,0,.14,0,.15,0,.17.07.3.09.39s0,.18,0,.26l0,.28c0,.1,0,.24.06.43a.52.52,0,0,0,0,.07l0,.12,0,.12a.51.51,0,0,1,0,.07V41s0,0,0,.06,0,.06,0,.09v.14s0,.07,0,.15l0,.28,0,.28c0,.09,0,.14,0,.16s0,.07,0,.16,0,.18,0,.28,0,.2,0,.28V43c0,.06,0,.14,0,.23s0,.17,0,.24a.2.2,0,0,1,0,.05s0,0-.05,0l-1.1,0a.57.57,0,0,1-.27,0l-.27,0h-.05l-.09,0-.09,0-.05,0a.4.4,0,0,1-.12-.22q0-.12,0-.28l0-.29h0v0a3.47,3.47,0,0,1,0-.38q0-.21,0-.43c0-.14,0-.28,0-.42s0-.26,0-.37,0,0,0-.07V40.9s0-.08,0-.11v-.06l0-.06,0-.06s0,0,0-.08,0-.08,0-.09,0-.13,0-.25l0-.37,0-.37c0-.12,0-.2,0-.24s0-.17,0-.28l0-.33,0-.31q0-.15,0-.24l0-.1a.2.2,0,0,0,0-.09h0l0,.08,0,.15,0,.15,0,.09,0,.07,0,.13,0,.13,0,.08v0l0,.05,0,.06v0a1.05,1.05,0,0,0-.12.31l0,.18a5.13,5.13,0,0,1-.24.94q-.16.45-.3.92l0,.15,0,.19,0,.17a.63.63,0,0,0,0,.09l-.07.33,0,.08,0,.09a3,3,0,0,1-.14.47,4.08,4.08,0,0,1-.21.45l0,0,0,0H66l-.06,0v0l0,0-.09-.2-.15-.33-.15-.33-.08-.19,0,0,0,0,0-.06,0-.1,0-.1,0-.06-.14-.25a.64.64,0,0,0,0-.19,1.46,1.46,0,0,0-.07-.18L65,41l-.08-.17a.13.13,0,0,1,0-.07.13.13,0,0,0,0-.07.23.23,0,0,0,0-.06l0,0,0-.09-.07-.16-.06-.15,0-.09-.05-.16-.08-.24-.08-.24,0-.15a1.63,1.63,0,0,1-.15-.3c0-.11-.08-.21-.11-.32l-.1-.31a1.7,1.7,0,0,0-.14-.29,1.42,1.42,0,0,0-.07.39,2.93,2.93,0,0,0,0,.37v.07a.18.18,0,0,0,0,0v.16s0,0,0,0v.06s0,.06,0,.09v.16l0,0,0,0q0,.26-.06.5t-.07.5l0,.33,0,.41,0,.43,0,.39,0,.29c0,.07,0,.12,0,.12v.07l-.06.32a.29.29,0,0,0,0,.19c0,.07,0,.14,0,.19s0,.05-.09.08l-.2.07-.26.06-.27,0-.23,0h-.81l-.14,0a.31.31,0,0,1-.12-.06l0,0Z"
            fill="#fff"/>
        <path
            d="M72.85,43.12v0a.86.86,0,0,0,.06-.14.71.71,0,0,0,0-.16s0-.08,0-.12a.22.22,0,0,0,0-.11q0-.44,0-.88t0-.87l0-.07,0-1.12,0-.07s0-.07,0-.14,0-.14,0-.21V39q0-.1,0-.14s0-.08,0-.18,0-.2,0-.3,0-.21,0-.31,0-.15,0-.18v-.18c0-.09,0-.2,0-.32s0-.25,0-.39,0-.28,0-.41,0-.26,0-.37v-.34s0-.07,0-.11,0-.07,0-.1,0,0,0-.06a6.48,6.48,0,0,0,0-.75q0-.37,0-.75V34a.06.06,0,0,1,0,0,.16.16,0,0,1,0-.11l.06,0h.08s.05,0,.07-.07h1.61l.54,0,.74,0a4.7,4.7,0,0,1,.76.13,3,3,0,0,1,.7.27,1.67,1.67,0,0,1,.55.48,1.58,1.58,0,0,1,.14.25,2.87,2.87,0,0,1,.12.31q.05.16.09.33c0,.11,0,.2.06.29V36a.89.89,0,0,0,0,.1.83.83,0,0,1,0,.09v.13l0,.14,0,.16,0,.12a1.23,1.23,0,0,1-.21.49l-.32.42-.08.1-.13.14-.12.14-.08.09v0s0,0,.07.06l.09,0a2.49,2.49,0,0,1,.31.24,2.11,2.11,0,0,1,.26.28l0,0h.09l0,0a.46.46,0,0,0,0,.07V39a.24.24,0,0,0,.06.09l.08.07.07.06,0,.05v.13a.1.1,0,0,0,0,.08l.07.05.06.05a.1.1,0,0,1,0,.07v0l0,0,0,0v0h0l0,.1,0,.1,0,.18.05.27,0,.27,0,.18v.2l0,0v.07a.34.34,0,0,1,0,0v0l0,.08,0,.08v0a.45.45,0,0,0,0,.06s0,0,0,.07v0a1.88,1.88,0,0,1-.33.69,3.9,3.9,0,0,1-.52.56l0,0-.05,0L78,43l0,0a1,1,0,0,1-.28.11.65.65,0,0,0-.26.14l-.14,0-.22,0-.22,0-.15,0a5.4,5.4,0,0,1-.6.06l-.6,0-1,0q-.52,0-1,0l-.06,0,0,0,0,0h-.13s0,0,0,0l0-.07,0-.06s0,0,0-.08v-.08l-.06,0-.07,0ZM75,41.38s0,.07,0,.11a.25.25,0,0,0,0,.1.16.16,0,0,0,0,.07l.09,0h.27l.07,0,.06,0h.26a1.17,1.17,0,0,0,.39-.12,1.56,1.56,0,0,0,.36-.25,1.4,1.4,0,0,0,.27-.34.9.9,0,0,0,.12-.39.68.68,0,0,0,0-.21.62.62,0,0,0-.09-.19,1.23,1.23,0,0,0-.31-.32,1.53,1.53,0,0,0-.37-.19,2.34,2.34,0,0,0-.41-.1l-.44-.08-.22-.05-.25,0v0a0,0,0,0,0,0,0v.19s0,.06,0,.09v.15a.86.86,0,0,0,0,.24,1.3,1.3,0,0,1,0,.25s0,0,0,.09,0,.12,0,.19v.21c0,.07,0,.13,0,.16v.07l0,.06,0,.06h0a.18.18,0,0,1,0,.07A.12.12,0,0,0,75,41.38ZM74.87,36a2.56,2.56,0,0,0,0,.42c0,.13,0,.27.06.41s0,.17,0,.25a1.25,1.25,0,0,0,0,.24.12.12,0,0,0,0,.05l0,0,0,0,0,0v.05s0,0,0,0l.11.07a.36.36,0,0,0,.14,0h0l.05,0,.1,0,.09-.06.06,0,.1-.06.1-.05.07,0,.17-.1.2-.14a1.12,1.12,0,0,0,.16-.16.28.28,0,0,0,.07-.17.17.17,0,0,0,0-.06.1.1,0,0,0,0-.06,2.88,2.88,0,0,0-.33-.35,1.71,1.71,0,0,0-.36-.24,1.8,1.8,0,0,0-.41-.14,2.79,2.79,0,0,0-.48-.06h-.06l-.05,0Z"
            fill="#fff"/>
        <path
            d="M80.8,43.4l-.06,0-.11,0-.12,0h-.17l0,0,0,0a.13.13,0,0,1-.09-.06l-.07-.07-.14,0a.15.15,0,0,1-.12-.09q0-.45,0-.88t0-.88q0-.31,0-.62c0-.21,0-.41,0-.62v-.34s0-.07,0-.1,0-.07,0-.1v-.06s0,0,0-.07l0-.11,0-.11,0-.07q-.06-1.28-.1-2.55T79.64,34V34a.4.4,0,0,1,0-.11.73.73,0,0,1,.05-.14l.07-.11s0,0,.07,0a.79.79,0,0,1,.23,0,.82.82,0,0,0,.23,0h.12l.07,0,.07,0a8.72,8.72,0,0,1,1.13-.09h1.13q.56,0,1.1.05l1.1.08.06.05,0,.06,0,.06.06.06s0,.08,0,.16l0,.24c0,.08,0,.16,0,.24s0,.13,0,.15v0s0,.05,0,.08,0,.06,0,.09V35s0,0,0,.06v.18s0,0,0,.06l-.09.15a.28.28,0,0,1-.11.1.72.72,0,0,1-.23.06l-.44,0h-1.2l-.51,0-.6,0,0,.07a.72.72,0,0,0,0,.11l0,.23,0,.27,0,.22v.07a.48.48,0,0,1,0,.08v.11a.14.14,0,0,0,0,.1l0,0h0l.56.05h1.15a2,2,0,0,1,.45,0l.45.08h.24l.11,0a.19.19,0,0,1,.07.09l0,.1,0,.13,0,.11,0,.05a.8.8,0,0,0,0,.23l0,.23a1.86,1.86,0,0,1,0,.23.65.65,0,0,1,0,.23.37.37,0,0,1-.17.24,1.1,1.1,0,0,1-.47.13H82.13q0,.29,0,.59t0,.59s0,.07,0,.12,0,.08,0,.09v.11l0,.17,0,.18c0,.06,0,.09,0,.12V41l0,.08,0,.07v0l.2,0,2.78,0h.2l.12,0,.06,0,0,0s0,.09,0,.13v.2s0,.08,0,.14v.32s0,.07,0,.08v.39a.72.72,0,0,0,0,.18,1.32,1.32,0,0,1,0,.19.55.55,0,0,1,0,.18.32.32,0,0,1-.12.15l-1,.11a7.36,7.36,0,0,1-1,.07l-.48,0-.48,0a.32.32,0,0,0-.2,0l-.2.05-.18,0a.2.2,0,0,1-.16-.06Z"
            fill="#fff"/>
        <path
            d="M87.06,43.46a.08.08,0,0,0-.05-.05l-.08,0h-.08a.08.08,0,0,1-.05,0c0-.1,0-.2,0-.31l0-.34c0-.11,0-.23,0-.34s0-.22,0-.31,0-.12,0-.24v-1c0-.19,0-.36,0-.53s0-.31,0-.43v-.24s0-.1,0-.19,0-.19,0-.29,0-.2,0-.29,0-.16,0-.2a.3.3,0,0,1,0-.17.76.76,0,0,0,0-.19s0-.06,0-.12V38l0-.25,0-.25,0-.21c0-.06,0-.1,0-.12q0-.38,0-.77V35.6q0-.43,0-.81a7,7,0,0,1,.08-.8l0,0,0,0h0l0,0,0,0h.05l.05,0h.19a3.9,3.9,0,0,0,.52,0l.52-.07h1.76l.47,0a2.38,2.38,0,0,1,.45.08h.09l.08,0,.07.05.06,0,.2.09.2.11a1.1,1.1,0,0,1,.19.16,1,1,0,0,1,.17.24l.07.05a.14.14,0,0,1,0,.07,1.53,1.53,0,0,0,.12.24l.15.23a.85.85,0,0,1,.1.22l.07.24.09.38v.12l0,.11,0,.11v.37l-.07.43-.19.45-.18.4a3.25,3.25,0,0,1-.2.36,1.74,1.74,0,0,1-.26.31,1.13,1.13,0,0,1-.29.19l-.31.14h0a.26.26,0,0,0,0,.11l.09.14.1.14.08.1v0h0l.29.54h.07a.45.45,0,0,1,.05.11l0,.13a1,1,0,0,0,0,.13.42.42,0,0,0,.09.12l.1.1v0s0,0,0,0l0,0,0,.08,0,.08,0,.06.33.54h.07a.08.08,0,0,1,.07,0V42a.48.48,0,0,0,0,.1l.06.09a2.44,2.44,0,0,1,.13.29l.09.26.06.21a.49.49,0,0,0,.06.13l-.11.1h-.16l-.24,0-.24,0h-1l-.08,0-.08,0h-.21l0,0,0,0a3.49,3.49,0,0,1-.24-.39l-.22-.4-.12-.23-.12-.25-.11-.25-.12-.23,0,0,0-.08,0-.08,0,0c0-.1-.09-.2-.15-.32l-.19-.36-.21-.37L89.18,40a3.11,3.11,0,0,0-.2-.27l-.17-.17v.09c0,.05,0,.11,0,.18l0,.18v.21a.81.81,0,0,1,0,.14.24.24,0,0,0,0,.1l.06.44c0,.08,0,.16,0,.22s0,.14,0,.24l0,0a.12.12,0,0,1,0,0,.2.2,0,0,1,0,.09.23.23,0,0,0,0,.11v1.52l0,0,0,0v0h0a.2.2,0,0,1,0,.11L89,43.5h-.5l-.28,0-.28,0a1.8,1.8,0,0,1-.42-.05Zm1.85-6s0,0,0,0h0l.16,0,.15,0a.05.05,0,0,1,0,0,.07.07,0,0,0,.06,0,1.89,1.89,0,0,0,.42-.05,1.51,1.51,0,0,0,.41-.16,1.08,1.08,0,0,0,.32-.27.61.61,0,0,0,.13-.39.47.47,0,0,0,0-.2.5.5,0,0,0-.09-.13l-.12-.09-.12-.08-.05,0,0,0L90.1,36l-.18-.07-.18-.07-.12,0-.12,0h-.12l-.25,0-.24,0h-.05l0,0v0a.06.06,0,0,0,0,0,.25.25,0,0,0,0,.14.25.25,0,0,1,0,.14v0l0,0,0,0,0,.08,0,.08a1.71,1.71,0,0,1,0,.26c0,.08,0,.16,0,.23s0,.15,0,.22A1.19,1.19,0,0,0,88.91,37.41Z"
            fill="#fff"/>
        <circle cx="25" cy="31" fill="#c24444" r="4"/>
        <path d="M28,17V30.33a3,3,0,0,1-6,0V17a3,3,0,0,1,6,0Z" fill="#c7c7c7"/>
        <path d="M25,14V33.33a3,3,0,0,1-3-3V17A3,3,0,0,1,25,14Z" fill="#b3b3b3"/>
        <circle cx="103" cy="31" fill="#c24444" r="4"/>
        <path d="M106,17V30.33a3,3,0,0,1-6,0V17a3,3,0,0,1,6,0Z" fill="#c7c7c7"/>
        <path d="M103,14V33.33a3,3,0,0,1-3-3V17A3,3,0,0,1,103,14Z" fill="#b3b3b3"/>
        <path
            d="M58.38,80.33a6.89,6.89,0,0,1,3.77,2.8q1.24,1.94,1.24,9.1a22.32,22.32,0,0,1-1.21,8.25A8.61,8.61,0,0,1,58,104.93a16.65,16.65,0,0,1-7.62,1.53,16.38,16.38,0,0,1-8.3-1.78,8.61,8.61,0,0,1-4-4.35q-.95-2.57-.95-8.93V87.88H48.28v7.24a11.7,11.7,0,0,0,.34,3.67,1.48,1.48,0,0,0,1.53.79,1.66,1.66,0,0,0,1.71-1,18.47,18.47,0,0,0,.41-5.17V90.33a9,9,0,0,0-.58-3.74A2.86,2.86,0,0,0,50,85a17.61,17.61,0,0,0-4.38-.43V78.14a22.39,22.39,0,0,0,4.9-.3,2.14,2.14,0,0,0,1.35-1.32,9.09,9.09,0,0,0,.41-3.19V70.84a6.46,6.46,0,0,0-.48-3.08,1.66,1.66,0,0,0-1.5-.74,1.64,1.64,0,0,0-1.58.79,8.29,8.29,0,0,0-.43,3.34v3.66H37.16V71q0-6.39,2.92-8.63t9.28-2.24q8,0,10.79,3.11T63,71.88a10.79,10.79,0,0,1-1,5.41A9.11,9.11,0,0,1,58.38,80.33Z"
            fill="#fe5959"/>
        <path
            d="M84.53,61v44.56H73.41V81.69a41.92,41.92,0,0,0-.25-6.22,2.32,2.32,0,0,0-1.36-1.58,14.11,14.11,0,0,0-5-.54h-1.1v-5.2Q73.79,66.42,78,61Z"
            fill="#fe5959"/>
    </g>
</svg>
